<svg width="1081" height="1081" viewBox="0 0 1081 1081" fill="none" xmlns="http://www.w3.org/2000/svg">
<path d="M329.141 851.649L161.548 820.429L281.65 713.726L442.956 725.287L329.141 851.649Z" fill="white" stroke="black"/>
<mask id="path-2-inside-1" fill="white">
<path fill-rule="evenodd" clip-rule="evenodd" d="M377.6 741.323C379.168 737.779 380.039 733.858 380.039 729.734C380.039 713.898 367.201 701.061 351.366 701.061C335.53 701.061 322.693 713.898 322.693 729.734C322.693 745.57 335.53 758.407 351.366 758.407C355.761 758.407 359.926 757.418 363.649 755.65C368.471 767.807 381.997 780.541 419.608 783.797C451.845 783.797 459.231 782.529 459.231 770.672C505.763 752.594 455.861 753.035 424.12 753.316C420.49 753.349 417.098 753.379 414.115 753.379C399.183 753.379 386.7 746.996 377.6 741.323Z"/>
</mask>
<path fill-rule="evenodd" clip-rule="evenodd" d="M377.6 741.323C379.168 737.779 380.039 733.858 380.039 729.734C380.039 713.898 367.201 701.061 351.366 701.061C335.53 701.061 322.693 713.898 322.693 729.734C322.693 745.57 335.53 758.407 351.366 758.407C355.761 758.407 359.926 757.418 363.649 755.65C368.471 767.807 381.997 780.541 419.608 783.797C451.845 783.797 459.231 782.529 459.231 770.672C505.763 752.594 455.861 753.035 424.12 753.316C420.49 753.349 417.098 753.379 414.115 753.379C399.183 753.379 386.7 746.996 377.6 741.323Z" fill="white"/>
<path d="M377.6 741.323L376.686 740.918L376.335 741.712L377.071 742.171L377.6 741.323ZM363.649 755.65L364.579 755.281L364.185 754.289L363.22 754.747L363.649 755.65ZM419.608 783.797L419.522 784.794L419.565 784.797H419.608V783.797ZM459.231 770.672L458.869 769.74L458.231 769.988V770.672H459.231ZM424.12 753.316L424.111 752.316L424.111 752.316L424.12 753.316ZM379.039 729.734C379.039 733.716 378.198 737.499 376.686 740.918L378.515 741.727C380.138 738.059 381.039 734 381.039 729.734H379.039ZM351.366 702.061C366.649 702.061 379.039 714.451 379.039 729.734H381.039C381.039 713.346 367.754 700.061 351.366 700.061V702.061ZM323.693 729.734C323.693 714.451 336.082 702.061 351.366 702.061V700.061C334.978 700.061 321.693 713.346 321.693 729.734H323.693ZM351.366 757.407C336.082 757.407 323.693 745.017 323.693 729.734H321.693C321.693 746.122 334.978 759.407 351.366 759.407V757.407ZM363.22 754.747C359.628 756.452 355.61 757.407 351.366 757.407V759.407C355.913 759.407 360.224 758.384 364.078 756.553L363.22 754.747ZM419.694 782.801C382.277 779.561 369.204 766.943 364.579 755.281L362.72 756.019C367.738 768.671 381.716 781.52 419.522 784.794L419.694 782.801ZM458.231 770.672C458.231 773.551 457.779 775.621 456.742 777.169C455.717 778.699 454.022 779.866 451.216 780.725C448.395 781.589 444.546 782.113 439.341 782.416C434.147 782.718 427.666 782.797 419.608 782.797V784.797C427.668 784.797 434.2 784.718 439.457 784.412C444.704 784.107 448.746 783.573 451.801 782.637C454.871 781.697 457.037 780.324 458.404 778.281C459.76 776.257 460.231 773.722 460.231 770.672H458.231ZM424.129 754.316C432.067 754.246 441.121 754.166 449.516 754.367C457.929 754.569 465.612 755.052 470.833 756.09C473.47 756.615 475.337 757.256 476.364 757.98C476.865 758.333 477.072 758.64 477.143 758.872C477.206 759.076 477.207 759.366 476.962 759.813C476.424 760.794 474.908 762.142 471.89 763.854C468.924 765.538 464.665 767.488 458.869 769.74L459.593 771.604C465.43 769.336 469.79 767.346 472.877 765.594C475.913 763.871 477.884 762.291 478.716 760.775C479.155 759.974 479.312 759.124 479.056 758.287C478.808 757.478 478.223 756.843 477.515 756.344C476.122 755.364 473.898 754.661 471.223 754.129C465.817 753.053 457.982 752.569 449.564 752.368C441.13 752.166 432.043 752.246 424.111 752.316L424.129 754.316ZM414.115 754.379C417.104 754.379 420.5 754.349 424.129 754.316L424.111 752.316C420.48 752.349 417.093 752.379 414.115 752.379V754.379ZM377.071 742.171C386.221 747.876 398.9 754.379 414.115 754.379V752.379C399.467 752.379 387.179 746.117 378.129 740.474L377.071 742.171Z" fill="black" mask="url(#path-2-inside-1)"/>
<mask id="path-4-inside-2" fill="white">
<path fill-rule="evenodd" clip-rule="evenodd" d="M345.532 813.127C346.232 810.517 346.605 807.773 346.605 804.942C346.605 787.526 332.487 773.408 315.071 773.408C297.656 773.408 283.537 787.526 283.537 804.942C283.537 822.358 297.656 836.476 315.071 836.476C319.651 836.476 324.003 835.499 327.93 833.743C334.182 847.095 349.676 860.568 386.255 867.533C423.149 871.103 431.75 870.38 433.145 855.967C488.524 839.146 431.363 834.157 395.003 830.983C390.846 830.621 386.961 830.281 383.546 829.951C367.795 828.427 355.061 820.542 345.532 813.127Z"/>
</mask>
<path fill-rule="evenodd" clip-rule="evenodd" d="M345.532 813.127C346.232 810.517 346.605 807.773 346.605 804.942C346.605 787.526 332.487 773.408 315.071 773.408C297.656 773.408 283.537 787.526 283.537 804.942C283.537 822.358 297.656 836.476 315.071 836.476C319.651 836.476 324.003 835.499 327.93 833.743C334.182 847.095 349.676 860.568 386.255 867.533C423.149 871.103 431.75 870.38 433.145 855.967C488.524 839.146 431.363 834.157 395.003 830.983C390.846 830.621 386.961 830.281 383.546 829.951C367.795 828.427 355.061 820.542 345.532 813.127Z" fill="white"/>
<path d="M345.532 813.127L344.566 812.868L344.394 813.509L344.918 813.916L345.532 813.127ZM327.93 833.743L328.836 833.319L328.419 832.429L327.522 832.83L327.93 833.743ZM386.255 867.533L386.068 868.516L386.113 868.524L386.159 868.529L386.255 867.533ZM433.145 855.967L432.854 855.01L432.214 855.205L432.15 855.871L433.145 855.967ZM395.003 830.983L395.09 829.987L395.09 829.987L395.003 830.983ZM383.546 829.951L383.45 830.946L383.45 830.946L383.546 829.951ZM345.605 804.942C345.605 807.685 345.243 810.342 344.566 812.868L346.498 813.386C347.22 810.692 347.605 807.861 347.605 804.942H345.605ZM315.071 774.408C331.934 774.408 345.605 788.079 345.605 804.942H347.605C347.605 786.974 333.039 772.408 315.071 772.408V774.408ZM284.537 804.942C284.537 788.079 298.208 774.408 315.071 774.408V772.408C297.103 772.408 282.537 786.974 282.537 804.942H284.537ZM315.071 835.476C298.208 835.476 284.537 821.805 284.537 804.942H282.537C282.537 822.91 297.103 837.476 315.071 837.476V835.476ZM327.522 832.83C323.721 834.53 319.508 835.476 315.071 835.476V837.476C319.795 837.476 324.285 836.468 328.338 834.656L327.522 832.83ZM386.442 866.551C350.033 859.618 334.899 846.268 328.836 833.319L327.025 834.167C333.465 847.922 349.32 861.518 386.068 868.516L386.442 866.551ZM432.15 855.871C431.808 859.396 431.038 861.923 429.628 863.744C428.235 865.542 426.117 866.782 422.796 867.517C419.454 868.257 414.978 868.468 408.985 868.259C403.002 868.052 395.574 867.43 386.351 866.538L386.159 868.529C395.383 869.421 402.865 870.048 408.915 870.258C414.954 870.468 419.634 870.266 423.228 869.47C426.844 868.669 429.443 867.249 431.209 864.969C432.956 862.713 433.784 859.744 434.14 856.063L432.15 855.871ZM394.916 831.98C404.01 832.773 414.382 833.679 423.968 834.853C433.572 836.029 442.315 837.468 448.176 839.311C451.132 840.241 453.214 841.232 454.327 842.246C454.87 842.741 455.11 843.175 455.178 843.541C455.242 843.886 455.181 844.314 454.821 844.871C454.054 846.059 452.116 847.547 448.466 849.292C444.865 851.014 439.754 852.914 432.854 855.01L433.436 856.924C440.38 854.814 445.598 852.88 449.329 851.096C453.01 849.336 455.408 847.65 456.502 845.955C457.072 845.071 457.322 844.13 457.144 843.175C456.97 842.24 456.414 841.442 455.673 840.767C454.218 839.442 451.776 838.347 448.776 837.403C442.724 835.5 433.821 834.045 424.211 832.868C414.584 831.688 404.177 830.78 395.09 829.987L394.916 831.98ZM383.45 830.946C386.87 831.277 390.76 831.617 394.916 831.98L395.09 829.987C390.932 829.624 387.051 829.285 383.643 828.956L383.45 830.946ZM344.918 813.916C354.505 821.376 367.42 829.395 383.45 830.946L383.643 828.956C368.169 827.458 355.618 819.708 346.146 812.338L344.918 813.916Z" fill="black" mask="url(#path-4-inside-2)"/>
<mask id="path-6-inside-3" fill="white">
<path fill-rule="evenodd" clip-rule="evenodd" d="M407.645 934.19H651.246C649.62 810.596 636.647 677.137 559.542 677.137C475.435 677.137 407.253 783.8 407.253 915.374C407.253 921.748 407.385 928.022 407.645 934.19Z"/>
</mask>
<path fill-rule="evenodd" clip-rule="evenodd" d="M407.645 934.19H651.246C649.62 810.596 636.647 677.137 559.542 677.137C475.435 677.137 407.253 783.8 407.253 915.374C407.253 921.748 407.385 928.022 407.645 934.19Z" fill="white"/>
<path d="M407.645 934.19L406.646 934.233L406.686 935.19H407.645V934.19ZM651.246 934.19V935.19H652.259L652.246 934.177L651.246 934.19ZM407.645 935.19H651.246V933.19H407.645V935.19ZM559.542 678.137C578.481 678.137 593.481 686.314 605.404 700.563C617.355 714.847 626.208 735.232 632.733 759.575C645.782 808.258 649.433 872.411 650.246 934.204L652.246 934.177C651.433 872.376 647.784 808.003 634.665 759.057C628.105 734.586 619.156 713.882 606.938 699.28C594.691 684.643 579.156 676.137 559.542 676.137V678.137ZM408.253 915.374C408.253 849.749 425.259 790.383 452.7 747.454C480.149 704.514 517.947 678.137 559.542 678.137V676.137C517.031 676.137 478.684 703.092 451.015 746.377C423.339 789.673 406.253 849.425 406.253 915.374H408.253ZM408.644 934.148C408.385 927.994 408.253 921.734 408.253 915.374H406.253C406.253 921.762 406.385 928.049 406.646 934.233L408.644 934.148Z" fill="black" mask="url(#path-6-inside-3)"/>
<circle cx="589.322" cy="614.599" r="110.643" fill="white" stroke="black"/>
<path d="M557.496 597.81C552.056 615.678 536.59 626.551 523.11 622.447C516.316 620.379 511.035 615.817 508.119 609.567C505.202 603.316 504.637 595.34 507.348 586.435C512.758 568.663 528.691 560.919 542.253 565.048C549.086 567.128 554.222 570.901 556.992 576.319C559.764 581.739 560.211 588.89 557.496 597.81Z" fill="white" stroke="black"/>
<path d="M552.827 597.209C548.408 611.725 535.859 620.518 524.957 617.199C514.008 613.866 507.944 601.778 512.346 587.319C516.734 572.904 530.662 566.219 541.651 569.564C547.167 571.243 551.032 574.555 552.992 579.206C554.958 583.871 555.036 589.953 552.827 597.209Z" fill="black" stroke="black"/>
<rect x="804.644" y="214.225" width="168.528" height="163.492" fill="white" stroke="black"/>
<rect x="817.053" y="225.785" width="64.7913" height="64.7913" fill="black" stroke="black"/>
<rect x="817.053" y="301.331" width="64.7913" height="64.7913" fill="black" stroke="black"/>
<rect x="895.357" y="225.785" width="64.7913" height="64.7913" fill="black" stroke="black"/>
<rect x="895.357" y="301.331" width="64.7913" height="64.7913" fill="black" stroke="black"/>
<path d="M567.345 547.958C550.201 557.957 531.017 568.458 516.046 563.108" stroke="black"/>
<path d="M547.494 626.004C546.84 628.744 544.057 630.829 539.823 631.874C535.617 632.913 530.122 632.879 524.344 631.498C518.567 630.117 513.65 627.663 510.367 624.835C507.064 621.988 505.525 618.87 506.179 616.131C506.834 613.391 509.617 611.306 513.851 610.26C518.057 609.222 523.552 609.256 529.33 610.637C535.107 612.018 540.024 614.472 543.306 617.3C546.61 620.147 548.149 623.265 547.494 626.004Z" fill="white" stroke="black"/>
<line x1="528.493" y1="659.219" x2="486.843" y2="655.953" stroke="black"/>
<path d="M534.267 677.89C526.059 661.62 526.875 654.311 539.562 645.034" stroke="black"/>
<path d="M161.633 819.526L126.14 663.984L249.964 573.953L281.321 713.697L161.633 819.526Z" fill="white" stroke="black"/>
<path d="M171.742 792.61L143.546 671.195L244.606 596.91L269.15 708.599L171.742 792.61Z" fill="black" stroke="black"/>
<ellipse cx="544.701" cy="583.727" rx="6.98978" ry="8.94694" transform="rotate(16.5043 544.701 583.727)" fill="white"/>
<ellipse cx="519.29" cy="598.945" rx="5.70663" ry="7.30451" transform="rotate(16.5043 519.29 598.945)" fill="white"/>
</svg>
