<svg width="1081" height="1080" viewBox="0 0 1081 1080" fill="none" xmlns="http://www.w3.org/2000/svg">
<g clip-path="url(#clip0)">
<path d="M329.358 851.332L161.765 820.113L281.868 713.409L443.174 724.97L329.358 851.332Z" fill="white" stroke="black"/>
<mask id="path-2-inside-1" fill="white">
<path fill-rule="evenodd" clip-rule="evenodd" d="M377.818 741.006C379.386 737.462 380.256 733.541 380.256 729.417C380.256 713.582 367.419 700.744 351.583 700.744C335.748 700.744 322.91 713.582 322.91 729.417C322.91 745.253 335.748 758.09 351.583 758.09C355.979 758.09 360.144 757.101 363.867 755.333C368.689 767.491 382.214 780.224 419.826 783.481C452.063 783.481 459.449 782.213 459.449 770.355C505.98 752.277 456.079 752.719 424.337 753C420.708 753.032 417.316 753.062 414.333 753.062C399.401 753.062 386.918 746.68 377.818 741.006Z"/>
</mask>
<path fill-rule="evenodd" clip-rule="evenodd" d="M377.818 741.006C379.386 737.462 380.256 733.541 380.256 729.417C380.256 713.582 367.419 700.744 351.583 700.744C335.748 700.744 322.91 713.582 322.91 729.417C322.91 745.253 335.748 758.09 351.583 758.09C355.979 758.09 360.144 757.101 363.867 755.333C368.689 767.491 382.214 780.224 419.826 783.481C452.063 783.481 459.449 782.213 459.449 770.355C505.98 752.277 456.079 752.719 424.337 753C420.708 753.032 417.316 753.062 414.333 753.062C399.401 753.062 386.918 746.68 377.818 741.006Z" fill="white"/>
<path d="M377.818 741.006L376.903 740.601L376.552 741.395L377.289 741.854L377.818 741.006ZM363.867 755.333L364.796 754.965L364.403 753.972L363.438 754.43L363.867 755.333ZM419.826 783.481L419.739 784.477L419.782 784.481H419.826V783.481ZM459.449 770.355L459.086 769.423L458.449 769.671V770.355H459.449ZM424.337 753L424.329 752L424.329 752L424.337 753ZM379.256 729.417C379.256 733.399 378.416 737.183 376.903 740.601L378.733 741.41C380.355 737.742 381.256 733.683 381.256 729.417H379.256ZM351.583 701.744C366.867 701.744 379.256 714.134 379.256 729.417H381.256C381.256 713.029 367.971 699.744 351.583 699.744V701.744ZM323.91 729.417C323.91 714.134 336.3 701.744 351.583 701.744V699.744C335.195 699.744 321.91 713.029 321.91 729.417H323.91ZM351.583 757.09C336.3 757.09 323.91 744.701 323.91 729.417H321.91C321.91 745.805 335.195 759.09 351.583 759.09V757.09ZM363.438 754.43C359.846 756.136 355.828 757.09 351.583 757.09V759.09C356.13 759.09 360.441 758.067 364.296 756.237L363.438 754.43ZM419.912 782.484C382.495 779.244 369.422 766.627 364.796 754.965L362.937 755.702C367.956 768.355 381.934 781.203 419.739 784.477L419.912 782.484ZM458.449 770.355C458.449 773.234 457.997 775.304 456.96 776.852C455.935 778.382 454.239 779.549 451.433 780.408C448.612 781.272 444.763 781.796 439.559 782.099C434.365 782.401 427.884 782.481 419.826 782.481V784.481C427.886 784.481 434.417 784.401 439.675 784.095C444.922 783.79 448.964 783.256 452.019 782.321C455.089 781.381 457.254 780.007 458.622 777.965C459.977 775.94 460.449 773.405 460.449 770.355H458.449ZM424.346 754C432.285 753.929 441.338 753.849 449.734 754.05C458.146 754.252 465.829 754.735 471.05 755.773C473.688 756.298 475.554 756.94 476.581 757.663C477.083 758.016 477.29 758.323 477.361 758.555C477.423 758.759 477.425 759.049 477.18 759.496C476.642 760.477 475.126 761.825 472.108 763.538C469.141 765.221 464.882 767.171 459.086 769.423L459.811 771.287C465.648 769.019 470.008 767.029 473.095 765.277C476.131 763.554 478.102 761.974 478.933 760.458C479.373 759.657 479.53 758.807 479.273 757.97C479.026 757.161 478.441 756.526 477.733 756.027C476.34 755.047 474.116 754.344 471.44 753.812C466.035 752.736 458.199 752.253 449.782 752.051C441.348 751.849 432.261 751.929 424.329 752L424.346 754ZM414.333 754.062C417.321 754.062 420.718 754.032 424.346 754L424.329 752C420.698 752.032 417.311 752.062 414.333 752.062V754.062ZM377.289 741.854C386.438 747.559 399.117 754.062 414.333 754.062V752.062C399.684 752.062 387.397 745.8 378.347 740.157L377.289 741.854Z" fill="black" mask="url(#path-2-inside-1)"/>
<mask id="path-4-inside-2" fill="white">
<path fill-rule="evenodd" clip-rule="evenodd" d="M344.86 816.167C345.202 813.486 345.201 810.717 344.82 807.912C342.471 790.656 326.578 778.57 309.322 780.919C292.065 783.267 279.98 799.16 282.328 816.416C284.676 833.673 300.569 845.758 317.826 843.41C322.364 842.792 326.545 841.238 330.199 838.969C338.194 851.355 355.364 862.616 392.547 864.585C429.586 863.148 438.011 861.271 437.45 846.802C490.055 822.667 432.743 825.431 396.288 827.19C392.119 827.391 388.223 827.579 384.796 827.712C368.982 828.325 355.302 822.229 344.86 816.167Z"/>
</mask>
<path fill-rule="evenodd" clip-rule="evenodd" d="M344.86 816.167C345.202 813.486 345.201 810.717 344.82 807.912C342.471 790.656 326.578 778.57 309.322 780.919C292.065 783.267 279.98 799.16 282.328 816.416C284.676 833.673 300.569 845.758 317.826 843.41C322.364 842.792 326.545 841.238 330.199 838.969C338.194 851.355 355.364 862.616 392.547 864.585C429.586 863.148 438.011 861.271 437.45 846.802C490.055 822.667 432.743 825.431 396.288 827.19C392.119 827.391 388.223 827.579 384.796 827.712C368.982 828.325 355.302 822.229 344.86 816.167Z" fill="white"/>
<path d="M344.86 816.167L343.868 816.041L343.785 816.699L344.358 817.032L344.86 816.167ZM330.199 838.969L331.039 838.426L330.506 837.601L329.671 838.119L330.199 838.969ZM392.547 864.585L392.494 865.584L392.54 865.586L392.586 865.585L392.547 864.585ZM437.45 846.802L437.033 845.893L436.424 846.172L436.45 846.841L437.45 846.802ZM396.288 827.19L396.239 826.191L396.239 826.191L396.288 827.19ZM384.796 827.712L384.835 828.711L384.835 828.711L384.796 827.712ZM343.829 808.047C344.198 810.765 344.199 813.446 343.868 816.041L345.852 816.293C346.205 813.527 346.204 810.67 345.81 807.777L343.829 808.047ZM309.457 781.909C326.166 779.636 341.555 791.338 343.829 808.047L345.81 807.777C343.388 789.974 326.991 777.505 309.187 779.928L309.457 781.909ZM283.319 816.281C281.045 799.572 292.747 784.183 309.457 781.909L309.187 779.928C291.383 782.351 278.915 798.747 281.337 816.551L283.319 816.281ZM317.691 842.419C300.982 844.693 285.593 832.991 283.319 816.281L281.337 816.551C283.76 834.355 300.157 846.824 317.961 844.401L317.691 842.419ZM329.671 838.119C326.134 840.316 322.087 841.821 317.691 842.419L317.961 844.401C322.641 843.764 326.955 842.16 330.727 839.818L329.671 838.119ZM392.6 863.587C355.589 861.626 338.793 850.439 331.039 838.426L329.359 839.511C337.595 852.271 355.138 863.605 392.494 865.584L392.6 863.587ZM436.45 846.841C436.588 850.38 436.165 852.988 435.013 854.983C433.876 856.952 431.944 858.466 428.752 859.642C425.541 860.826 421.134 861.638 415.167 862.24C409.211 862.841 401.767 863.227 392.509 863.586L392.586 865.585C401.847 865.225 409.345 864.838 415.368 864.23C421.381 863.624 425.99 862.792 429.444 861.519C432.919 860.238 435.303 858.48 436.745 855.983C438.172 853.511 438.592 850.459 438.449 846.763L436.45 846.841ZM396.336 828.189C405.453 827.749 415.852 827.247 425.51 827.118C435.184 826.989 444.041 827.235 450.098 828.272C453.152 828.794 455.348 829.496 456.588 830.35C457.193 830.767 457.489 831.165 457.606 831.519C457.716 831.852 457.713 832.284 457.432 832.884C456.832 834.165 455.112 835.901 451.731 838.122C448.394 840.314 443.587 842.886 437.033 845.893L437.867 847.711C444.463 844.684 449.373 842.064 452.829 839.794C456.24 837.553 458.388 835.559 459.243 833.733C459.689 832.779 459.81 831.814 459.505 830.891C459.206 829.988 458.548 829.272 457.723 828.703C456.102 827.587 453.535 826.831 450.435 826.3C444.182 825.23 435.163 824.989 425.483 825.118C415.785 825.248 405.35 825.751 396.239 826.191L396.336 828.189ZM384.835 828.711C388.268 828.578 392.169 828.389 396.336 828.189L396.239 826.191C392.07 826.392 388.179 826.58 384.757 826.712L384.835 828.711ZM344.358 817.032C354.864 823.131 368.742 829.335 384.835 828.711L384.757 826.712C369.223 827.315 355.741 821.328 345.362 815.302L344.358 817.032Z" fill="black" mask="url(#path-4-inside-2)"/>
<mask id="path-6-inside-3" fill="white">
<path fill-rule="evenodd" clip-rule="evenodd" d="M407.863 933.874H650.38C637.659 809.617 533.157 683.001 454.293 683.001C348.873 696.897 365.021 727.322 389.661 773.747C409.309 810.767 434.357 857.96 407.471 915.058C407.471 921.431 407.603 927.705 407.863 933.874Z"/>
</mask>
<path fill-rule="evenodd" clip-rule="evenodd" d="M407.863 933.874H650.38C637.659 809.617 533.157 683.001 454.293 683.001C348.873 696.897 365.021 727.322 389.661 773.747C409.309 810.767 434.357 857.96 407.471 915.058C407.471 921.431 407.603 927.705 407.863 933.874Z" fill="white"/>
<path d="M407.863 933.874L406.864 933.916L406.904 934.874H407.863V933.874ZM650.38 933.874V934.874H651.487L651.375 933.772L650.38 933.874ZM454.293 683.001V682.001H454.227L454.162 682.01L454.293 683.001ZM389.661 773.747L388.778 774.216L388.778 774.216L389.661 773.747ZM407.471 915.058L406.566 914.632L406.471 914.834V915.058H407.471ZM407.863 934.874H650.38V932.874H407.863V934.874ZM454.293 684.001C473.749 684.001 494.877 691.815 515.866 705.563C536.845 719.305 557.623 738.936 576.358 762.464C613.834 809.528 643.047 872.07 649.385 933.976L651.375 933.772C644.991 871.42 615.593 808.526 577.922 761.218C559.084 737.56 538.154 717.771 516.961 703.89C495.777 690.014 474.269 682.001 454.293 682.001V684.001ZM390.545 773.279C384.373 761.651 378.786 751.119 375.485 741.609C372.184 732.1 371.235 723.791 374.133 716.548C377.026 709.319 383.848 702.912 396.649 697.434C409.451 691.955 428.103 687.462 454.424 683.993L454.162 682.01C427.773 685.488 408.911 690.01 395.862 695.595C382.811 701.18 375.444 707.887 372.276 715.805C369.114 723.708 370.233 732.578 373.596 742.265C376.958 751.951 382.629 762.631 388.778 774.216L390.545 773.279ZM408.376 915.484C435.496 857.887 410.174 810.263 390.545 773.279L388.778 774.216C408.445 811.271 433.217 858.033 406.566 914.632L408.376 915.484ZM408.862 933.832C408.602 927.677 408.471 921.417 408.471 915.058H406.471C406.471 921.445 406.603 927.733 406.864 933.916L408.862 933.832Z" fill="black" mask="url(#path-6-inside-3)"/>
<path d="M161.602 820.223L99.1935 676.258L224.126 573.574L281.574 713.581L161.602 820.223Z" fill="white" stroke="black"/>
<path d="M165.954 783.805L122.45 682.295L219.807 605.434L258.414 703.36L165.954 783.805Z" fill="black" stroke="black"/>
<rect x="804.862" y="213.908" width="168.528" height="163.492" fill="white" stroke="black"/>
<circle cx="345.275" cy="672.337" r="110.643" fill="white" stroke="black"/>
<rect x="817.271" y="225.469" width="64.7913" height="64.7913" fill="black" stroke="black"/>
<rect x="817.271" y="301.014" width="64.7913" height="64.7913" fill="black" stroke="black"/>
<rect x="895.575" y="225.469" width="64.7913" height="64.7913" fill="black" stroke="black"/>
<rect x="895.575" y="301.014" width="64.7913" height="64.7913" fill="black" stroke="black"/>
<path d="M226.943 689.209C209.07 669.139 196.864 660.631 169.026 653.075C193.498 645.733 206.054 641.227 214.603 628.557C212.408 609.044 206.052 599.545 186.877 584.812C207.866 593.246 219.145 594.726 237.417 585.11C240.563 568.817 240.247 559.466 235.313 542.333C248.22 554.145 255.638 557.563 269.168 558.488C279.293 551.098 283.563 543.595 289.39 525.75C294.008 544.342 305.985 550.519 309.646 551.68C328.88 541.49 331.834 535.92 334.225 534.202C337.334 544.941 340.361 547.756 346.632 550.594" stroke="#FF0101" stroke-width="5"/>
<path d="M398.945 393.724L401.817 363.575C428.822 365.288 443.125 366.608 443.754 379.636C443.207 391.883 431.656 394.275 398.945 393.724ZM398.945 393.724L394.678 438.526C423.359 438.115 438.578 437.436 439.292 422.465C440.718 407.997 429.665 401.827 398.945 393.724Z" stroke="#FF0000" stroke-width="5"/>
<path d="M452.475 437.637L467.016 403.997M497.184 437.637L489.371 403.997M489.371 403.997L481.558 370.357L467.016 403.997M489.371 403.997H467.016" stroke="#FF0000" stroke-width="5"/>
<path d="M515.415 440.242L523.662 370.357L554.047 438.071L559.255 370.357" stroke="#FF0000" stroke-width="5"/>
<path d="M613.514 378.604C613.514 378.604 610.324 364.662 598.755 364.28C590.557 363.962 584.452 364.28 581.545 378.604L575.316 424.615C576.129 438.809 581.565 442.196 595.717 444.148C612.613 442.319 615.709 438.457 618.289 430.258V402.044H595.717" stroke="#FF0000" stroke-width="5"/>
<path d="M299.742 736.544L295.397 761.889L314.949 749.578" stroke="black"/>
<line x1="340.338" y1="782.298" x2="344.785" y2="760.073" stroke="black"/>
</g>
<defs>
<clipPath id="clip0">
<rect width="1080" height="1080" fill="white" transform="translate(0.758423)"/>
</clipPath>
</defs>
</svg>
