<svg width="1081" height="1081" viewBox="0 0 1081 1081" fill="none" xmlns="http://www.w3.org/2000/svg">
<path d="M296.6 795.368L223.26 678.194L313.706 596.601L379.321 699.431L296.6 795.368Z" fill="white" stroke="black"/>
<mask id="path-2-inside-1" fill="white">
<path fill-rule="evenodd" clip-rule="evenodd" d="M396.987 708.715C399.514 705.777 401.482 702.276 402.676 698.328C407.259 683.17 398.688 667.167 383.53 662.583C368.372 657.999 352.368 666.571 347.785 681.729C343.201 696.887 351.773 712.89 366.93 717.474C371.138 718.746 375.411 719.005 379.486 718.391C380.583 731.423 389.844 747.526 424.902 761.531C455.759 770.862 463.196 771.786 466.628 760.436C516.4 756.601 468.507 742.579 438.044 733.661C434.56 732.641 431.305 731.688 428.449 730.824C414.157 726.502 404.055 716.78 396.987 708.715Z"/>
</mask>
<path fill-rule="evenodd" clip-rule="evenodd" d="M396.987 708.715C399.514 705.777 401.482 702.276 402.676 698.328C407.259 683.17 398.688 667.167 383.53 662.583C368.372 657.999 352.368 666.571 347.785 681.729C343.201 696.887 351.773 712.89 366.93 717.474C371.138 718.746 375.411 719.005 379.486 718.391C380.583 731.423 389.844 747.526 424.902 761.531C455.759 770.862 463.196 771.786 466.628 760.436C516.4 756.601 468.507 742.579 438.044 733.661C434.56 732.641 431.305 731.688 428.449 730.824C414.157 726.502 404.055 716.78 396.987 708.715Z" fill="white"/>
<path d="M396.987 708.715L396.229 708.063L395.663 708.721L396.235 709.374L396.987 708.715ZM379.486 718.391L380.483 718.307L380.393 717.243L379.337 717.402L379.486 718.391ZM424.902 761.531L424.531 762.459L424.571 762.475L424.612 762.488L424.902 761.531ZM466.628 760.436L466.551 759.439L465.869 759.492L465.671 760.147L466.628 760.436ZM438.044 733.661L438.325 732.701L438.325 732.701L438.044 733.661ZM401.718 698.039C400.566 701.85 398.666 705.228 396.229 708.063L397.746 709.367C400.361 706.325 402.398 702.701 403.633 698.618L401.718 698.039ZM383.24 663.54C397.869 667.964 406.142 683.41 401.718 698.039L403.633 698.618C408.377 682.931 399.506 666.369 383.819 661.626L383.24 663.54ZM348.742 682.018C353.166 667.389 368.611 659.116 383.24 663.54L383.819 661.626C368.133 656.882 351.571 665.753 346.827 681.439L348.742 682.018ZM367.22 716.517C352.591 712.093 344.318 696.647 348.742 682.018L346.827 681.439C342.084 697.126 350.955 713.688 366.641 718.431L367.22 716.517ZM379.337 717.402C375.405 717.995 371.282 717.745 367.22 716.517L366.641 718.431C370.994 719.747 375.416 720.016 379.635 719.38L379.337 717.402ZM425.273 760.602C390.396 746.67 381.535 730.809 380.483 718.307L378.49 718.475C379.631 732.038 389.292 748.383 424.531 762.459L425.273 760.602ZM465.671 760.147C464.837 762.902 463.806 764.753 462.365 765.935C460.941 767.103 458.98 767.729 456.046 767.739C453.096 767.749 449.26 767.137 444.19 765.92C439.131 764.706 432.905 762.906 425.191 760.574L424.612 762.488C432.328 764.821 438.603 766.636 443.723 767.865C448.834 769.091 452.858 769.75 456.053 769.739C459.264 769.728 461.734 769.04 463.634 767.481C465.518 765.935 466.702 763.645 467.585 760.726L465.671 760.147ZM437.763 734.62C445.382 736.851 454.071 739.395 462.049 742.018C470.043 744.645 477.257 747.332 481.954 749.837C484.327 751.103 485.927 752.257 486.701 753.247C487.079 753.73 487.188 754.084 487.189 754.326C487.19 754.54 487.108 754.818 486.743 755.175C485.945 755.958 484.103 756.81 480.719 757.575C477.392 758.328 472.751 758.962 466.551 759.439L466.705 761.433C472.948 760.952 477.698 760.309 481.16 759.526C484.565 758.756 486.909 757.813 488.143 756.603C488.796 755.963 489.192 755.195 489.189 754.32C489.186 753.474 488.81 752.697 488.277 752.015C487.227 750.673 485.302 749.356 482.895 748.073C478.032 745.478 470.672 742.747 462.673 740.118C454.659 737.483 445.937 734.93 438.325 732.701L437.763 734.62ZM428.16 731.781C431.02 732.646 434.28 733.601 437.763 734.62L438.325 732.701C434.84 731.681 431.589 730.729 428.739 729.867L428.16 731.781ZM396.235 709.374C403.342 717.483 413.596 727.377 428.16 731.781L428.739 729.867C414.717 725.627 404.768 716.076 397.739 708.056L396.235 709.374Z" fill="black" mask="url(#path-2-inside-1)"/>
<mask id="path-4-inside-2" fill="white">
<path fill-rule="evenodd" clip-rule="evenodd" d="M329.332 777.678C331.441 773.132 332.622 768.046 332.622 762.677C332.622 743.37 317.36 727.719 298.534 727.719C279.709 727.719 264.447 743.37 264.447 762.677C264.447 781.984 279.709 797.635 298.534 797.635C302.482 797.635 306.272 796.947 309.798 795.681C326.545 814.005 360.269 835.835 410.335 845.612C437.074 848.266 434.398 842.69 430.185 833.911C428.115 829.596 425.673 824.508 426.17 819.243C486.033 800.595 424.243 795.064 384.939 791.546C380.445 791.144 376.245 790.768 372.555 790.401C356.594 788.818 341.634 783.029 329.332 777.678Z"/>
</mask>
<path fill-rule="evenodd" clip-rule="evenodd" d="M329.332 777.678C331.441 773.132 332.622 768.046 332.622 762.677C332.622 743.37 317.36 727.719 298.534 727.719C279.709 727.719 264.447 743.37 264.447 762.677C264.447 781.984 279.709 797.635 298.534 797.635C302.482 797.635 306.272 796.947 309.798 795.681C326.545 814.005 360.269 835.835 410.335 845.612C437.074 848.266 434.398 842.69 430.185 833.911C428.115 829.596 425.673 824.508 426.17 819.243C486.033 800.595 424.243 795.064 384.939 791.546C380.445 791.144 376.245 790.768 372.555 790.401C356.594 788.818 341.634 783.029 329.332 777.678Z" fill="white"/>
<path d="M329.332 777.678L328.425 777.257L327.994 778.186L328.933 778.595L329.332 777.678ZM309.798 795.681L310.536 795.006L310.087 794.515L309.46 794.74L309.798 795.681ZM410.335 845.612L410.143 846.594L410.189 846.603L410.236 846.607L410.335 845.612ZM430.185 833.911L429.284 834.344L429.284 834.344L430.185 833.911ZM426.17 819.243L425.872 818.288L425.237 818.486L425.174 819.149L426.17 819.243ZM384.939 791.546L385.028 790.55L385.028 790.55L384.939 791.546ZM372.555 790.401L372.653 789.406L372.653 789.406L372.555 790.401ZM331.622 762.677C331.622 767.898 330.474 772.841 328.425 777.257L330.239 778.099C332.409 773.423 333.622 768.194 333.622 762.677H331.622ZM298.534 728.719C316.784 728.719 331.622 743.898 331.622 762.677H333.622C333.622 742.842 317.936 726.719 298.534 726.719V728.719ZM265.447 762.677C265.447 743.898 280.284 728.719 298.534 728.719V726.719C279.133 726.719 263.447 742.842 263.447 762.677H265.447ZM298.534 796.635C280.284 796.635 265.447 781.455 265.447 762.677H263.447C263.447 782.512 279.133 798.635 298.534 798.635V796.635ZM309.46 794.74C306.041 795.967 302.365 796.635 298.534 796.635V798.635C302.599 798.635 306.503 797.926 310.136 796.622L309.46 794.74ZM410.527 844.631C360.642 834.889 327.12 813.151 310.536 795.006L309.06 796.356C325.971 814.859 359.897 836.781 410.143 846.594L410.527 844.631ZM429.284 834.344C430.353 836.571 431.255 838.462 431.651 840.057C432.04 841.628 431.87 842.627 431.158 843.344C430.352 844.154 428.63 844.858 425.227 845.141C421.874 845.42 417.098 845.278 410.434 844.617L410.236 846.607C416.942 847.273 421.859 847.429 425.393 847.134C428.876 846.844 431.235 846.103 432.576 844.754C434.011 843.311 434.053 841.435 433.592 839.575C433.136 837.738 432.124 835.64 431.087 833.478L429.284 834.344ZM425.174 819.149C424.647 824.738 427.239 830.082 429.284 834.344L431.087 833.478C428.991 829.111 426.699 824.278 427.165 819.337L425.174 819.149ZM384.85 792.542C394.679 793.422 405.893 794.426 416.256 795.728C426.638 797.032 436.094 798.627 442.435 800.672C445.631 801.703 447.894 802.806 449.112 803.943C449.707 804.499 449.986 805.001 450.066 805.443C450.143 805.867 450.063 806.374 449.663 807.01C448.817 808.354 446.701 810.011 442.757 811.945C438.86 813.856 433.332 815.964 425.872 818.288L426.467 820.197C433.973 817.859 439.609 815.716 443.638 813.741C447.619 811.789 450.19 809.928 451.356 808.075C451.961 807.113 452.218 806.104 452.034 805.086C451.852 804.086 451.27 803.222 450.477 802.481C448.918 801.025 446.292 799.815 443.049 798.769C436.513 796.661 426.893 795.048 416.506 793.743C406.1 792.436 394.851 791.429 385.028 790.55L384.85 792.542ZM372.456 791.397C376.152 791.763 380.357 792.14 384.85 792.542L385.028 790.55C380.533 790.148 376.338 789.772 372.653 789.406L372.456 791.397ZM328.933 778.595C341.253 783.954 356.333 789.797 372.456 791.397L372.653 789.406C356.856 787.839 342.015 782.104 329.731 776.761L328.933 778.595Z" fill="black" mask="url(#path-4-inside-2)"/>
<mask id="path-6-inside-3" fill="white">
<path fill-rule="evenodd" clip-rule="evenodd" d="M409.243 934.19H655.076C638.208 808.652 610.847 677.835 531.11 688.055C449.722 698.485 396.273 807.684 409.243 934.19Z"/>
</mask>
<path fill-rule="evenodd" clip-rule="evenodd" d="M409.243 934.19H655.076C638.208 808.652 610.847 677.835 531.11 688.055C449.722 698.485 396.273 807.684 409.243 934.19Z" fill="white"/>
<path d="M409.243 934.19L408.248 934.292L408.34 935.19H409.243V934.19ZM655.076 934.19V935.19H656.219L656.067 934.057L655.076 934.19ZM531.11 688.055L531.238 689.046L531.11 688.055ZM409.243 935.19H655.076V933.19H409.243V935.19ZM531.238 689.046C550.852 686.533 567.226 692.676 581.073 705.287C594.956 717.931 606.309 737.091 615.741 760.586C634.605 807.576 645.65 871.551 654.085 934.324L656.067 934.057C647.633 871.291 636.564 807.089 617.597 759.841C608.113 736.217 596.621 716.742 582.42 703.809C568.184 690.843 551.237 684.467 530.983 687.063L531.238 689.046ZM410.238 934.088C403.769 870.992 413.871 812.259 435.689 768.037C457.513 723.804 490.987 694.205 531.238 689.046L530.983 687.063C489.846 692.335 455.901 722.55 433.896 767.152C411.885 811.763 401.747 870.883 408.248 934.292L410.238 934.088Z" fill="black" mask="url(#path-6-inside-3)"/>
<path d="M224.661 676.392L245.318 537.855L329.072 469.846L313.596 596.752L224.661 676.392Z" fill="white" stroke="black"/>
<circle cx="466.622" cy="621.524" r="110.643" transform="rotate(-45.9025 466.622 621.524)" fill="white" stroke="black"/>
<path d="M248.486 596.974L257.15 541.303L319.031 490.512L305.553 591.785L240.446 652.942L248.485 596.98L248.486 596.974Z" fill="black" stroke="black"/>
<path d="M433.82 639.929C440.958 652.823 437.461 668.292 426.182 674.537C414.903 680.781 399.936 675.535 392.798 662.641C389.255 656.242 389.547 650.538 392.105 645.643C394.679 640.717 399.575 636.565 405.315 633.387C411.057 630.208 416.42 628.681 421.203 629.503C425.957 630.32 430.249 633.48 433.82 639.929Z" fill="white" stroke="black"/>
<path d="M430.89 645.614C436.065 654.962 433.048 666.482 424.225 671.367C415.401 676.252 404.036 672.695 398.861 663.347C393.685 653.999 396.702 642.479 405.526 637.593C414.35 632.708 425.715 636.266 430.89 645.614Z" fill="black" stroke="black"/>
<ellipse cx="415.828" cy="643.813" rx="5.35911" ry="6.85968" transform="rotate(-36.329 415.828 643.813)" fill="white"/>
<ellipse cx="413.425" cy="666.596" rx="4.37532" ry="5.60042" transform="rotate(-36.329 413.425 666.596)" fill="white"/>
<rect x="804.62" y="214.225" width="168.528" height="163.492" fill="white" stroke="black"/>
<rect x="817.03" y="225.785" width="64.7913" height="64.7913" fill="black" stroke="black"/>
<rect x="817.03" y="301.331" width="64.7913" height="64.7913" fill="black" stroke="black"/>
<rect x="895.333" y="225.785" width="64.7913" height="64.7913" fill="black" stroke="black"/>
<rect x="895.333" y="301.331" width="64.7913" height="64.7913" fill="black" stroke="black"/>
<path d="M407.306 617.143C402.558 636.413 396.11 642.346 381.85 649.375" stroke="black"/>
<path d="M441.33 662.439C442.569 664.386 442.273 667.187 440.554 670.244C438.847 673.28 435.794 676.446 431.787 678.996C427.779 681.545 423.617 682.968 420.144 683.228C416.646 683.489 413.984 682.57 412.745 680.623C411.506 678.675 411.803 675.874 413.521 672.818C415.228 669.782 418.281 666.615 422.289 664.066C426.297 661.516 430.459 660.093 433.932 659.834C437.429 659.572 440.092 660.491 441.33 662.439Z" fill="white" stroke="black"/>
<line x1="456.336" y1="696.26" x2="425.007" y2="723.897" stroke="black"/>
<path d="M473.764 705.105C456.367 699.678 451.686 694.006 453.852 678.439" stroke="black"/>
</svg>
