<svg width="1081" height="1081" viewBox="0 0 1081 1081" fill="none" xmlns="http://www.w3.org/2000/svg">
<mask id="path-1-inside-1" fill="white">
<path fill-rule="evenodd" clip-rule="evenodd" d="M605.36 477.08C601.69 472.853 599.217 467.51 598.539 461.527C596.756 445.792 608.066 431.591 623.801 429.808C639.536 428.025 653.737 439.336 655.52 455.071C657.162 469.559 647.703 482.746 633.912 486.137C615.656 512.935 585.029 558.52 590.984 611.078C591.887 619.044 592.985 628.094 594.161 637.776C604.44 722.458 620.602 855.589 562.973 736.27C560.299 736.669 557.769 737.093 555.378 737.493C526.685 742.299 517.975 743.757 520.018 658.554C524.088 549.252 569.887 499.486 605.36 477.08Z"/>
</mask>
<path fill-rule="evenodd" clip-rule="evenodd" d="M605.36 477.08C601.69 472.853 599.217 467.51 598.539 461.527C596.756 445.792 608.066 431.591 623.801 429.808C639.536 428.025 653.737 439.336 655.52 455.071C657.162 469.559 647.703 482.746 633.912 486.137C615.656 512.935 585.029 558.52 590.984 611.078C591.887 619.044 592.985 628.094 594.161 637.776C604.44 722.458 620.602 855.589 562.973 736.27C560.299 736.669 557.769 737.093 555.378 737.493C526.685 742.299 517.975 743.757 520.018 658.554C524.088 549.252 569.887 499.486 605.36 477.08Z" fill="white"/>
<path d="M605.36 477.08L605.894 477.926L606.879 477.304L606.115 476.424L605.36 477.08ZM633.912 486.137L633.673 485.166L633.301 485.257L633.086 485.574L633.912 486.137ZM594.161 637.776L593.168 637.897L593.168 637.897L594.161 637.776ZM562.973 736.27L563.874 735.835L563.554 735.173L562.826 735.281L562.973 736.27ZM555.378 737.493L555.212 736.507L555.212 736.507L555.378 737.493ZM520.018 658.554L519.019 658.517L519.018 658.53L520.018 658.554ZM606.115 476.424C602.573 472.345 600.187 467.19 599.532 461.414L597.545 461.639C598.246 467.83 600.806 473.361 604.605 477.736L606.115 476.424ZM599.532 461.414C597.812 446.228 608.728 432.522 623.914 430.802L623.689 428.815C607.405 430.659 595.7 445.356 597.545 461.639L599.532 461.414ZM623.914 430.802C639.1 429.081 652.806 439.997 654.527 455.184L656.514 454.958C654.669 438.675 639.973 426.97 623.689 428.815L623.914 430.802ZM654.527 455.184C656.111 469.165 646.983 481.893 633.673 485.166L634.151 487.108C648.424 483.598 658.213 469.952 656.514 454.958L654.527 455.184ZM633.086 485.574C614.855 512.334 583.988 558.215 589.99 611.191L591.978 610.966C586.07 558.826 616.456 513.535 634.738 486.7L633.086 485.574ZM589.99 611.191C590.893 619.162 591.992 628.215 593.168 637.897L595.153 637.656C593.978 627.972 592.88 618.927 591.978 610.966L589.99 611.191ZM593.168 637.897C598.314 680.289 604.905 734.623 603.035 763.459C602.566 770.683 601.572 776.157 599.978 779.431C599.184 781.062 598.302 782.019 597.388 782.449C596.516 782.86 595.437 782.873 594.024 782.219C592.585 781.553 590.871 780.222 588.864 778.064C586.866 775.915 584.622 772.995 582.114 769.216C577.097 761.657 571.069 750.732 563.874 735.835L562.073 736.705C569.285 751.638 575.358 762.654 580.448 770.322C582.992 774.156 585.303 777.171 587.4 779.426C589.488 781.672 591.409 783.213 593.184 784.034C594.985 784.867 596.699 784.984 598.239 784.259C599.736 783.555 600.884 782.139 601.776 780.307C603.554 776.655 604.56 770.84 605.03 763.588C606.916 734.518 600.287 679.946 595.153 637.656L593.168 637.897ZM562.826 735.281C560.141 735.681 557.603 736.107 555.212 736.507L555.543 738.479C557.935 738.079 560.457 737.657 563.121 737.259L562.826 735.281ZM555.212 736.507C547.988 737.717 542.22 738.674 537.568 738.174C535.27 737.926 533.291 737.325 531.573 736.247C529.859 735.17 528.35 733.583 527.041 731.282C524.4 726.64 522.618 719.17 521.643 707.426C520.669 695.711 520.507 679.87 521.018 658.578L519.018 658.53C518.507 679.84 518.667 695.767 519.649 707.592C520.629 719.388 522.435 727.229 525.303 732.271C526.748 734.813 528.474 736.662 530.51 737.941C532.543 739.218 534.832 739.891 537.354 740.162C542.341 740.699 548.421 739.672 555.543 738.479L555.212 736.507ZM521.017 658.591C525.075 549.61 570.708 500.15 605.894 477.926L604.826 476.235C569.066 498.822 523.101 548.895 519.019 658.517L521.017 658.591Z" fill="black" mask="url(#path-1-inside-1)"/>
<mask id="path-3-inside-2" fill="white">
<path fill-rule="evenodd" clip-rule="evenodd" d="M546.356 481.092C555.501 484.275 566.027 483.627 575.261 478.436C592.089 468.973 598.252 447.999 589.025 431.59C579.798 415.18 558.676 409.548 541.847 419.011C525.018 428.474 518.855 449.447 528.082 465.857C528.185 466.039 528.289 466.22 528.395 466.4C522.523 474.512 513.818 488.176 500.938 510.115C464.487 572.202 420.833 674.807 439.411 735.339C453.64 767.783 462.493 760.848 474.871 751.151C479.233 747.734 484.033 743.973 489.661 741.472C530.279 774.061 526.748 769.314 513.686 751.751C504.995 740.065 492.084 722.707 485.15 706.897C477.042 688.41 495.225 609.259 506.867 571.812C509.804 562.364 512.903 552.972 515.926 543.968C522.393 530.24 528.625 517.566 534.064 506.505C538.93 496.608 543.161 488.004 546.356 481.092Z"/>
</mask>
<path fill-rule="evenodd" clip-rule="evenodd" d="M546.356 481.092C555.501 484.275 566.027 483.627 575.261 478.436C592.089 468.973 598.252 447.999 589.025 431.59C579.798 415.18 558.676 409.548 541.847 419.011C525.018 428.474 518.855 449.447 528.082 465.857C528.185 466.039 528.289 466.22 528.395 466.4C522.523 474.512 513.818 488.176 500.938 510.115C464.487 572.202 420.833 674.807 439.411 735.339C453.64 767.783 462.493 760.848 474.871 751.151C479.233 747.734 484.033 743.973 489.661 741.472C530.279 774.061 526.748 769.314 513.686 751.751C504.995 740.065 492.084 722.707 485.15 706.897C477.042 688.41 495.225 609.259 506.867 571.812C509.804 562.364 512.903 552.972 515.926 543.968C522.393 530.24 528.625 517.566 534.064 506.505C538.93 496.608 543.161 488.004 546.356 481.092Z" fill="white"/>
<path d="M546.356 481.092L546.685 480.148L545.829 479.85L545.449 480.672L546.356 481.092ZM528.395 466.4L529.205 466.987L529.588 466.457L529.257 465.894L528.395 466.4ZM500.938 510.115L501.8 510.621L501.8 510.621L500.938 510.115ZM439.411 735.339L438.455 735.633L438.472 735.688L438.495 735.741L439.411 735.339ZM474.871 751.151L475.488 751.938L475.488 751.938L474.871 751.151ZM489.661 741.472L490.286 740.692L489.811 740.311L489.255 740.559L489.661 741.472ZM513.686 751.751L512.883 752.347L512.883 752.347L513.686 751.751ZM485.15 706.897L486.066 706.495L486.066 706.495L485.15 706.897ZM506.867 571.812L507.822 572.109L507.822 572.109L506.867 571.812ZM515.926 543.968L515.022 543.542L514.997 543.594L514.978 543.649L515.926 543.968ZM534.064 506.505L534.961 506.946L534.961 506.946L534.064 506.505ZM574.77 477.564C565.793 482.612 555.566 483.239 546.685 480.148L546.028 482.036C555.436 485.312 566.261 484.643 575.751 479.307L574.77 477.564ZM588.153 432.08C597.098 447.987 591.139 468.36 574.77 477.564L575.751 479.307C593.04 469.586 599.406 448.011 589.897 431.1L588.153 432.08ZM542.337 419.883C558.705 410.679 579.209 416.172 588.153 432.08L589.897 431.1C580.387 414.188 558.646 408.418 541.357 418.139L542.337 419.883ZM528.954 465.367C520.009 449.459 525.969 429.086 542.337 419.883L541.357 418.139C524.067 427.861 517.702 449.435 527.211 466.347L528.954 465.367ZM529.257 465.894C529.155 465.72 529.054 465.544 528.954 465.367L527.211 466.347C527.316 466.535 527.424 466.721 527.532 466.906L529.257 465.894ZM501.8 510.621C514.677 488.688 523.362 475.058 529.205 466.987L527.585 465.814C521.683 473.966 512.959 487.664 500.076 509.608L501.8 510.621ZM440.367 735.046C431.173 705.088 437.356 664.555 450.491 623.615C463.611 582.722 483.603 541.617 501.8 510.621L500.076 509.608C481.822 540.7 461.761 581.94 448.586 623.004C435.426 664.023 429.072 705.058 438.455 735.633L440.367 735.046ZM474.254 750.364C471.14 752.803 468.337 754.995 465.635 756.454C462.946 757.904 460.481 758.558 458.032 758.067C455.577 757.576 452.937 755.894 449.993 752.234C447.049 748.573 443.869 743.014 440.327 734.938L438.495 735.741C442.068 743.887 445.331 749.628 448.435 753.487C451.54 757.349 454.554 759.411 457.639 760.028C460.728 760.647 463.687 759.777 466.584 758.214C469.467 756.658 472.413 754.347 475.488 751.938L474.254 750.364ZM489.255 740.559C483.496 743.117 478.602 746.957 474.254 750.364L475.488 751.938C479.864 748.51 484.57 744.829 490.067 742.386L489.255 740.559ZM512.883 752.347C516.16 756.753 518.802 760.307 520.311 762.674C521.091 763.897 521.474 764.665 521.56 765.036C521.617 765.282 521.457 764.935 521.802 764.635C521.964 764.494 522.123 764.478 522.16 764.476C522.193 764.475 522.169 764.481 522.064 764.453C521.596 764.327 520.66 763.85 519.101 762.838C517.581 761.851 515.567 760.422 512.985 758.495C507.824 754.643 500.44 748.839 490.286 740.692L489.035 742.252C499.19 750.4 506.597 756.223 511.789 760.098C514.384 762.035 516.438 763.494 518.012 764.515C519.546 765.512 520.729 766.164 521.543 766.384C521.758 766.442 522.002 766.486 522.252 766.474C522.506 766.463 522.833 766.389 523.114 766.144C523.697 765.638 523.582 764.9 523.508 764.583C523.333 763.828 522.751 762.782 521.998 761.599C520.44 759.155 517.742 755.529 514.488 751.154L512.883 752.347ZM484.234 707.299C491.223 723.232 504.209 740.685 512.883 752.347L514.488 751.154C505.78 739.445 492.945 722.181 486.066 706.495L484.234 707.299ZM505.912 571.515C500.08 590.276 492.614 619.463 487.619 646.281C485.122 659.69 483.238 672.528 482.488 683.187C482.113 688.515 482.02 693.318 482.28 697.385C482.539 701.434 483.151 704.829 484.234 707.299L486.066 706.495C485.122 704.343 484.529 701.221 484.276 697.257C484.024 693.31 484.112 688.603 484.483 683.327C485.226 672.775 487.095 660.019 489.586 646.648C494.566 619.907 502.013 590.795 507.822 572.109L505.912 571.515ZM514.978 543.649C511.954 552.656 508.852 562.057 505.912 571.515L507.822 572.109C510.756 562.671 513.852 553.287 516.874 544.286L514.978 543.649ZM533.166 506.064C527.728 517.124 521.493 529.806 515.022 543.542L516.831 544.394C523.294 530.675 529.522 518.008 534.961 506.946L533.166 506.064ZM545.449 480.672C542.259 487.571 538.034 496.163 533.166 506.064L534.961 506.946C539.825 497.054 544.062 488.436 547.264 481.512L545.449 480.672Z" fill="black" mask="url(#path-3-inside-2)"/>
<mask id="path-5-inside-3" fill="white">
<path fill-rule="evenodd" clip-rule="evenodd" d="M432.889 934.19H626.628C619.357 877.94 626.775 819.542 633.135 769.469C642.876 692.784 650.136 635.628 598.353 635.628C508.185 635.628 413.443 784.403 430.169 914.91C431 921.391 431.906 927.822 432.889 934.19Z"/>
</mask>
<path fill-rule="evenodd" clip-rule="evenodd" d="M432.889 934.19H626.628C619.357 877.94 626.775 819.542 633.135 769.469C642.876 692.784 650.136 635.628 598.353 635.628C508.185 635.628 413.443 784.403 430.169 914.91C431 921.391 431.906 927.822 432.889 934.19Z" fill="white"/>
<path d="M432.889 934.19L431.901 934.343L432.032 935.19H432.889V934.19ZM626.628 934.19V935.19H627.765L627.619 934.062L626.628 934.19ZM633.135 769.469L634.127 769.595L634.127 769.595L633.135 769.469ZM598.353 635.628L598.353 634.628L598.353 635.628ZM430.169 914.91L431.161 914.783L431.161 914.783L430.169 914.91ZM432.889 935.19H626.628V933.19H432.889V935.19ZM632.143 769.343C625.785 819.395 618.346 877.92 625.636 934.318L627.619 934.062C620.368 877.96 627.764 819.689 634.127 769.595L632.143 769.343ZM598.353 636.628C611.107 636.628 620.077 640.141 626.291 646.458C632.529 652.8 636.12 662.101 637.826 673.934C641.242 697.642 637.021 730.941 632.143 769.343L634.127 769.595C638.99 731.313 643.269 697.69 639.805 673.649C638.07 661.608 634.376 651.827 627.716 645.056C621.032 638.259 611.491 634.628 598.353 634.628L598.353 636.628ZM431.161 914.783C422.832 849.796 442.259 780.202 475.028 726.852C507.831 673.447 553.796 636.628 598.353 636.628L598.353 634.628C552.742 634.628 506.252 672.197 473.324 725.806C440.361 779.471 420.78 849.518 429.177 915.038L431.161 914.783ZM433.878 934.038C432.896 927.678 431.99 921.256 431.161 914.783L429.177 915.038C430.009 921.526 430.917 927.966 431.901 934.343L433.878 934.038Z" fill="black" mask="url(#path-5-inside-3)"/>
<rect x="805.038" y="214.225" width="168.528" height="163.492" fill="white" stroke="black"/>
<rect x="817.448" y="225.785" width="64.7913" height="64.7913" fill="black" stroke="black"/>
<rect x="817.448" y="301.331" width="64.7913" height="64.7913" fill="black" stroke="black"/>
<rect x="895.751" y="225.785" width="64.7913" height="64.7913" fill="black" stroke="black"/>
<rect x="895.751" y="301.331" width="64.7913" height="64.7913" fill="black" stroke="black"/>
<circle cx="641.116" cy="588.795" r="110.643" transform="rotate(0.691188 641.116 588.795)" fill="white" stroke="black"/>
<path d="M608.152 575.848C603.26 591.249 588.298 600.128 574.813 595.845C561.328 591.561 554.233 575.675 559.125 560.274C564.017 544.873 578.979 535.994 592.464 540.278C605.949 544.562 613.044 560.447 608.152 575.848Z" fill="white" stroke="black"/>
<path d="M602.897 574.179C598.814 587.03 586.855 594.534 576.295 591.179C565.735 587.825 560.298 574.795 564.381 561.944C568.463 549.093 580.422 541.59 590.982 544.944C601.542 548.298 606.979 561.328 602.897 574.179Z" fill="black" stroke="black"/>
<ellipse cx="593.468" cy="560.198" rx="6.13924" ry="7.85824" transform="rotate(11.1912 593.468 560.198)" fill="white"/>
<ellipse cx="572.483" cy="575.573" rx="5.01223" ry="6.41567" transform="rotate(11.1912 572.483 575.573)" fill="white"/>
<path d="M606.804 531.218C589.542 541.01 580.801 540.403 565.895 534.873" stroke="black"/>
<path d="M594.012 598.536C593.449 600.775 591.21 602.484 587.808 603.336C584.43 604.182 580.031 604.14 575.425 602.98C570.819 601.821 566.925 599.775 564.35 597.43C561.757 595.069 560.595 592.503 561.158 590.265C561.722 588.027 563.96 586.317 567.362 585.465C570.741 584.619 575.139 584.661 579.745 585.821C584.352 586.981 588.245 589.026 590.821 591.371C593.414 593.733 594.576 596.298 594.012 598.536Z" fill="white" stroke="black"/>
<line x1="579.753" y1="632.679" x2="538.146" y2="628.91" stroke="black"/>
<path d="M585.302 651.418C577.29 635.05 578.195 627.752 590.992 618.629" stroke="black"/>
<rect x="799.099" y="244.659" width="91.076" height="77.4869" transform="rotate(29.5746 799.099 244.659)" fill="white" stroke="black"/>
<rect x="802.09" y="254.37" width="76.6935" height="63.5725" transform="rotate(29.5746 802.09 254.37)" fill="black" stroke="black"/>
<path d="M760.945 379.997L760.945 312.198L840.037 357.082L843.046 426.071L760.945 379.997Z" fill="white" stroke="black"/>
<path d="M418.6 523.032L631.248 293.689" stroke="black"/>
<path d="M564.86 394.377L664.154 295.082" stroke="black"/>
<path d="M794.688 522.154L851.804 458.008" stroke="black"/>
<path d="M729.542 674.957L879.802 460.552" stroke="black"/>
<path d="M736.486 313.184C734.822 300.309 731.491 292.756 723.923 279.056C732.678 285.267 737.584 287.064 746.327 285.279C746.301 275.968 744.621 270.115 738.029 258.311C743.212 261.126 746.122 261.275 751.306 258.311C750.433 245.119 747.12 237.207 740.933 223.045C751.781 226.543 757.072 226.783 764.582 223.045C762.418 206.732 758.929 197.303 751.306 180.312C762.035 188.007 768.132 192.5 776.614 195.248C780.152 193.927 783.641 187.141 790.305 173.259C796.733 187.992 799.797 194.128 801.922 191.929C809.406 190.857 812.396 182.775 818.518 173.259C822.561 184.463 824.821 195.289 828.89 191.929C832.292 193.408 836.378 188.853 842.996 182.386C847.878 192.423 850.219 196.785 850.464 191.929" stroke="#FF0000" stroke-width="5"/>
<path d="M856.392 411.99C867.797 413.893 874.41 417.054 886.479 425.25C880.757 414.011 879.626 407.757 881.624 396.692C884.677 392.611 893.279 394.75 915.415 402.938C905.447 388.99 895.16 379.784 898.872 369.871C906.6 363.452 916.304 367.082 930.266 369.052C921.984 361.045 914.333 355.449 912.43 349.788C915.384 338.761 919.4 337.2 925.564 332.457C910.139 333.222 903.223 332.225 894.189 327.728C899.043 319.745 902.927 316.072 910.133 309.715C900.554 311.588 892.705 308.783 886.475 305.953" stroke="#FF0000" stroke-width="5"/>
</svg>
