<svg width="1081" height="1081" viewBox="0 0 1081 1081" fill="none" xmlns="http://www.w3.org/2000/svg">
<mask id="path-1-inside-1" fill="white">
<path fill-rule="evenodd" clip-rule="evenodd" d="M604.778 477.08C601.107 472.853 598.634 467.51 597.956 461.527C596.174 445.792 607.484 431.591 623.219 429.808C638.954 428.025 653.155 439.336 654.938 455.071C656.579 469.559 647.121 482.746 633.33 486.137C615.073 512.935 584.447 558.52 590.402 611.078C591.304 619.044 592.403 628.094 593.578 637.776C603.858 722.458 620.02 855.589 562.391 736.27C559.717 736.669 557.187 737.093 554.795 737.493C526.103 742.299 517.392 743.757 519.436 658.554C523.506 549.252 569.305 499.486 604.778 477.08Z"/>
</mask>
<path fill-rule="evenodd" clip-rule="evenodd" d="M604.778 477.08C601.107 472.853 598.634 467.51 597.956 461.527C596.174 445.792 607.484 431.591 623.219 429.808C638.954 428.025 653.155 439.336 654.938 455.071C656.579 469.559 647.121 482.746 633.33 486.137C615.073 512.935 584.447 558.52 590.402 611.078C591.304 619.044 592.403 628.094 593.578 637.776C603.858 722.458 620.02 855.589 562.391 736.27C559.717 736.669 557.187 737.093 554.795 737.493C526.103 742.299 517.392 743.757 519.436 658.554C523.506 549.252 569.305 499.486 604.778 477.08Z" fill="white"/>
<path d="M604.778 477.08L605.312 477.926L606.296 477.304L605.533 476.424L604.778 477.08ZM633.33 486.137L633.091 485.166L632.719 485.257L632.503 485.574L633.33 486.137ZM593.578 637.776L592.586 637.897L592.586 637.897L593.578 637.776ZM562.391 736.27L563.292 735.835L562.971 735.173L562.244 735.281L562.391 736.27ZM554.795 737.493L554.63 736.507L554.63 736.507L554.795 737.493ZM519.436 658.554L518.436 658.517L518.436 658.53L519.436 658.554ZM605.533 476.424C601.991 472.345 599.604 467.19 598.95 461.414L596.963 461.639C597.664 467.83 600.224 473.361 604.023 477.736L605.533 476.424ZM598.95 461.414C597.229 446.228 608.146 432.522 623.332 430.802L623.107 428.815C606.823 430.659 595.118 445.356 596.963 461.639L598.95 461.414ZM623.332 430.802C638.518 429.081 652.224 439.997 653.944 455.184L655.932 454.958C654.087 438.675 639.39 426.97 623.107 428.815L623.332 430.802ZM653.944 455.184C655.528 469.165 646.4 481.893 633.091 485.166L633.569 487.108C647.842 483.598 657.63 469.952 655.932 454.958L653.944 455.184ZM632.503 485.574C614.272 512.334 583.406 558.215 589.408 611.191L591.395 610.966C585.488 558.826 615.874 513.535 634.156 486.7L632.503 485.574ZM589.408 611.191C590.311 619.162 591.41 628.215 592.586 637.897L594.571 637.656C593.395 627.972 592.297 618.927 591.395 610.966L589.408 611.191ZM592.586 637.897C597.732 680.289 604.323 734.623 602.452 763.459C601.984 770.683 600.99 776.157 599.395 779.431C598.601 781.062 597.719 782.019 596.805 782.449C595.934 782.86 594.855 782.873 593.442 782.219C592.003 781.553 590.289 780.222 588.282 778.064C586.284 775.915 584.04 772.995 581.532 769.216C576.514 761.657 570.486 750.732 563.292 735.835L561.491 736.705C568.703 751.638 574.776 762.654 579.865 770.322C582.41 774.156 584.721 777.171 586.817 779.426C588.906 781.672 590.827 783.213 592.602 784.034C594.402 784.867 596.117 784.984 597.657 784.259C599.154 783.555 600.301 782.139 601.194 780.307C602.972 776.655 603.978 770.84 604.448 763.588C606.334 734.518 599.705 679.946 594.571 637.656L592.586 637.897ZM562.244 735.281C559.559 735.681 557.021 736.107 554.63 736.507L554.961 738.479C557.353 738.079 559.874 737.657 562.539 737.259L562.244 735.281ZM554.63 736.507C547.406 737.717 541.637 738.674 536.985 738.174C534.688 737.926 532.709 737.325 530.991 736.247C529.277 735.17 527.767 733.583 526.459 731.282C523.818 726.64 522.036 719.17 521.06 707.426C520.087 695.711 519.925 679.87 520.435 658.578L518.436 658.53C517.925 679.84 518.085 695.767 519.067 707.592C520.047 719.388 521.852 727.229 524.72 732.271C526.166 734.813 527.891 736.662 529.928 737.941C531.961 739.218 534.249 739.891 536.771 740.162C541.758 740.699 547.839 739.672 554.961 738.479L554.63 736.507ZM520.435 658.591C524.493 549.61 570.126 500.15 605.312 477.926L604.244 476.235C568.484 498.822 522.518 548.895 518.436 658.517L520.435 658.591Z" fill="black" mask="url(#path-1-inside-1)"/>
<mask id="path-3-inside-2" fill="white">
<path fill-rule="evenodd" clip-rule="evenodd" d="M545.774 481.092C554.919 484.275 565.445 483.627 574.679 478.436C591.508 468.973 597.67 447.999 588.443 431.59C579.216 415.18 558.094 409.548 541.265 419.011C524.436 428.474 518.274 449.447 527.501 465.857C527.603 466.039 527.707 466.22 527.813 466.4C521.941 474.512 513.236 488.176 500.356 510.115C463.905 572.202 420.251 674.807 438.829 735.339C453.059 767.783 461.911 760.848 474.289 751.151C478.651 747.734 483.451 743.973 489.079 741.472C529.697 774.061 526.166 769.314 513.104 751.751C504.413 740.065 491.502 722.707 484.568 706.897C476.46 688.41 494.644 609.259 506.285 571.812C509.222 562.364 512.321 552.972 515.345 543.968C521.812 530.24 528.043 517.566 533.482 506.505C538.348 496.608 542.579 488.004 545.774 481.092Z"/>
</mask>
<path fill-rule="evenodd" clip-rule="evenodd" d="M545.774 481.092C554.919 484.275 565.445 483.627 574.679 478.436C591.508 468.973 597.67 447.999 588.443 431.59C579.216 415.18 558.094 409.548 541.265 419.011C524.436 428.474 518.274 449.447 527.501 465.857C527.603 466.039 527.707 466.22 527.813 466.4C521.941 474.512 513.236 488.176 500.356 510.115C463.905 572.202 420.251 674.807 438.829 735.339C453.059 767.783 461.911 760.848 474.289 751.151C478.651 747.734 483.451 743.973 489.079 741.472C529.697 774.061 526.166 769.314 513.104 751.751C504.413 740.065 491.502 722.707 484.568 706.897C476.46 688.41 494.644 609.259 506.285 571.812C509.222 562.364 512.321 552.972 515.345 543.968C521.812 530.24 528.043 517.566 533.482 506.505C538.348 496.608 542.579 488.004 545.774 481.092Z" fill="white"/>
<path d="M545.774 481.092L546.103 480.148L545.247 479.85L544.867 480.672L545.774 481.092ZM527.813 466.4L528.623 466.987L529.006 466.457L528.675 465.894L527.813 466.4ZM500.356 510.115L501.219 510.621L501.219 510.621L500.356 510.115ZM438.829 735.339L437.873 735.633L437.89 735.688L437.914 735.741L438.829 735.339ZM474.289 751.151L474.906 751.938L474.906 751.938L474.289 751.151ZM489.079 741.472L489.705 740.692L489.23 740.311L488.673 740.559L489.079 741.472ZM513.104 751.751L512.301 752.347L512.301 752.347L513.104 751.751ZM484.568 706.897L485.484 706.495L485.484 706.495L484.568 706.897ZM506.285 571.812L507.24 572.109L507.24 572.109L506.285 571.812ZM515.345 543.968L514.44 543.542L514.415 543.594L514.397 543.649L515.345 543.968ZM533.482 506.505L534.379 506.946L534.379 506.946L533.482 506.505ZM574.189 477.564C565.211 482.612 554.984 483.239 546.103 480.148L545.446 482.036C554.854 485.312 565.679 484.643 575.169 479.307L574.189 477.564ZM587.572 432.08C596.516 447.987 590.557 468.36 574.189 477.564L575.169 479.307C592.458 469.586 598.824 448.011 589.315 431.1L587.572 432.08ZM541.755 419.883C558.123 410.679 578.627 416.172 587.572 432.08L589.315 431.1C579.806 414.188 558.064 408.418 540.775 418.139L541.755 419.883ZM528.372 465.367C519.428 449.459 525.387 429.086 541.755 419.883L540.775 418.139C523.486 427.861 517.12 449.435 526.629 466.347L528.372 465.367ZM528.675 465.894C528.573 465.72 528.472 465.544 528.372 465.367L526.629 466.347C526.735 466.535 526.842 466.721 526.95 466.906L528.675 465.894ZM501.219 510.621C514.096 488.688 522.78 475.058 528.623 466.987L527.003 465.814C521.102 473.966 512.377 487.664 499.494 509.608L501.219 510.621ZM439.785 735.046C430.591 705.088 436.774 664.555 449.909 623.615C463.029 582.722 483.021 541.617 501.219 510.621L499.494 509.608C481.24 540.7 461.179 581.94 448.004 623.004C434.844 664.023 428.49 705.058 437.873 735.633L439.785 735.046ZM473.672 750.364C470.558 752.803 467.755 754.995 465.053 756.454C462.365 757.904 459.899 758.558 457.45 758.067C454.995 757.576 452.355 755.894 449.411 752.234C446.467 748.573 443.287 743.014 439.745 734.938L437.914 735.741C441.486 743.887 444.749 749.628 447.853 753.487C450.958 757.349 453.972 759.411 457.057 760.028C460.146 760.647 463.105 759.777 466.002 758.214C468.886 756.658 471.831 754.347 474.906 751.938L473.672 750.364ZM488.673 740.559C482.914 743.117 478.021 746.957 473.672 750.364L474.906 751.938C479.282 748.51 483.988 744.829 489.485 742.386L488.673 740.559ZM512.301 752.347C515.578 756.753 518.22 760.307 519.729 762.674C520.509 763.897 520.892 764.665 520.978 765.036C521.035 765.282 520.876 764.935 521.22 764.635C521.382 764.494 521.542 764.478 521.578 764.476C521.611 764.475 521.587 764.481 521.482 764.453C521.015 764.327 520.078 763.85 518.519 762.838C516.999 761.851 514.985 760.422 512.404 758.495C507.242 754.643 499.859 748.839 489.705 740.692L488.453 742.252C498.608 750.4 506.015 756.223 511.207 760.098C513.802 762.035 515.856 763.494 517.43 764.515C518.964 765.512 520.148 766.164 520.961 766.384C521.176 766.442 521.42 766.486 521.67 766.474C521.925 766.463 522.251 766.389 522.533 766.144C523.115 765.638 523 764.9 522.927 764.583C522.751 763.828 522.17 762.782 521.416 761.599C519.858 759.155 517.161 755.529 513.906 751.154L512.301 752.347ZM483.653 707.299C490.641 723.232 503.628 740.685 512.301 752.347L513.906 751.154C505.198 739.445 492.364 722.181 485.484 706.495L483.653 707.299ZM505.33 571.515C499.498 590.276 492.032 619.463 487.038 646.281C484.54 659.69 482.657 672.528 481.906 683.187C481.531 688.515 481.438 693.318 481.698 697.385C481.957 701.434 482.57 704.829 483.653 707.299L485.484 706.495C484.54 704.343 483.947 701.221 483.694 697.257C483.442 693.31 483.53 688.603 483.902 683.327C484.644 672.775 486.513 660.019 489.004 646.648C493.984 619.907 501.431 590.795 507.24 572.109L505.33 571.515ZM514.397 543.649C511.372 552.656 508.271 562.057 505.33 571.515L507.24 572.109C510.174 562.671 513.27 553.287 516.293 544.286L514.397 543.649ZM532.584 506.064C527.146 517.124 520.911 529.806 514.44 543.542L516.249 544.394C522.712 530.675 528.94 518.008 534.379 506.946L532.584 506.064ZM544.867 480.672C541.677 487.571 537.452 496.163 532.584 506.064L534.379 506.946C539.243 497.054 543.48 488.436 546.682 481.512L544.867 480.672Z" fill="black" mask="url(#path-3-inside-2)"/>
<mask id="path-5-inside-3" fill="white">
<path fill-rule="evenodd" clip-rule="evenodd" d="M432.307 934.19H626.046C618.775 877.94 626.193 819.542 632.553 769.469C642.294 692.784 649.554 635.628 597.772 635.628C507.603 635.628 412.861 784.403 429.587 914.91C430.418 921.391 431.324 927.822 432.307 934.19Z"/>
</mask>
<path fill-rule="evenodd" clip-rule="evenodd" d="M432.307 934.19H626.046C618.775 877.94 626.193 819.542 632.553 769.469C642.294 692.784 649.554 635.628 597.772 635.628C507.603 635.628 412.861 784.403 429.587 914.91C430.418 921.391 431.324 927.822 432.307 934.19Z" fill="white"/>
<path d="M432.307 934.19L431.319 934.343L431.45 935.19H432.307V934.19ZM626.046 934.19V935.19H627.183L627.038 934.062L626.046 934.19ZM632.553 769.469L633.545 769.595L633.545 769.595L632.553 769.469ZM597.772 635.628L597.772 634.628H597.772L597.772 635.628ZM429.587 914.91L430.579 914.783L430.579 914.783L429.587 914.91ZM432.307 935.19H626.046V933.19H432.307V935.19ZM631.561 769.343C625.204 819.395 617.764 877.92 625.054 934.318L627.038 934.062C619.786 877.96 627.182 819.689 633.545 769.595L631.561 769.343ZM597.772 636.628C610.526 636.628 619.495 640.141 625.709 646.458C631.947 652.8 635.539 662.101 637.244 673.934C640.66 697.642 636.439 730.941 631.561 769.343L633.545 769.595C638.408 731.313 642.688 697.69 639.223 673.649C637.488 661.608 633.795 651.827 627.135 645.056C620.45 638.259 610.909 634.628 597.772 634.628V636.628ZM430.579 914.783C422.25 849.796 441.677 780.202 474.446 726.852C507.25 673.447 553.214 636.628 597.772 636.628L597.772 634.628C552.16 634.628 505.67 672.197 472.742 725.806C439.779 779.471 420.198 849.518 428.595 915.038L430.579 914.783ZM433.296 934.038C432.314 927.678 431.409 921.256 430.579 914.783L428.595 915.038C429.427 921.526 430.335 927.966 431.319 934.343L433.296 934.038Z" fill="black" mask="url(#path-5-inside-3)"/>
<rect x="804.456" y="214.225" width="168.528" height="163.492" fill="white" stroke="black"/>
<path d="M881.657 254.78L881.596 254.714L880.651 253.699L880.731 255.084L881.639 270.75L876.687 273.132L862.837 267.044L862.279 267.852L869.251 274.966L856.79 278.298L856.419 278.397V278.781V281.176V281.609L856.848 281.671L871.4 283.764L867.156 288.899L849.238 290.577H816.866V225.785H881.657V254.78Z" fill="black" stroke="black"/>
<path d="M860.41 309.739L869.463 307.865V312.956V314.158L870.315 313.311L881.415 302.274L882.453 304.793L880.276 311.689L880.232 311.826L880.268 311.965L881.642 317.285L877.141 336.775L876.848 338.041L877.914 337.297L881.657 334.685V366.122H816.866V301.331H849.261L856.549 301.331L862.334 304.934L859.881 308.991L859.288 309.972L860.41 309.739Z" fill="black" stroke="black"/>
<path d="M930.191 284.446L930.079 284.386H929.952H927.178H927.103H915.791L912.599 277.203L917.298 267.746L917.581 267.177L916.961 267.036L906.422 264.636L903.121 258.654L902.696 257.883L902.252 258.643L898.287 265.425L895.169 266.764V225.785H959.961V290.577H951.633L933.753 286.385L930.191 284.446Z" fill="black" stroke="black"/>
<path d="M927.565 301.331H959.961V366.122H895.204L898.584 315.186L898.98 313.141H905.115L906.587 316.674L906.715 316.982H907.049H908.508L915.428 321.228L915.754 321.428L916.033 321.166L922.645 314.941L923.069 314.543L922.611 314.184L913.2 306.802L917.687 301.331H927.565Z" fill="black" stroke="black"/>
<circle cx="640.534" cy="588.795" r="110.643" transform="rotate(0.691188 640.534 588.795)" fill="white" stroke="black"/>
<path d="M607.57 575.848C602.678 591.249 587.716 600.128 574.231 595.845C560.746 591.561 553.651 575.675 558.543 560.274C563.435 544.873 578.397 535.994 591.882 540.278C605.367 544.562 612.462 560.447 607.57 575.848Z" fill="white" stroke="black"/>
<path d="M603.145 574.442C598.955 587.631 586.539 595.306 575.514 591.804C564.49 588.302 558.779 574.869 562.969 561.68C567.158 548.491 579.575 540.816 590.599 544.318C601.623 547.82 607.334 561.253 603.145 574.442Z" fill="black" stroke="black"/>
<ellipse cx="594.914" cy="560.016" rx="6.98978" ry="8.94694" transform="rotate(16.5043 594.914 560.016)" fill="white"/>
<ellipse cx="569.503" cy="575.234" rx="5.70663" ry="7.30451" transform="rotate(16.5043 569.503 575.234)" fill="white"/>
<path d="M606.222 531.218C588.959 541.01 580.219 540.403 565.313 534.873" stroke="black"/>
<path d="M593.43 598.536C592.866 600.775 590.628 602.484 587.226 603.336C583.847 604.182 579.449 604.14 574.843 602.98C570.237 601.821 566.343 599.775 563.767 597.43C561.175 595.069 560.013 592.503 560.576 590.265C561.14 588.027 563.378 586.317 566.78 585.465C570.159 584.619 574.557 584.661 579.163 585.821C583.769 586.981 587.663 589.026 590.238 591.371C592.831 593.733 593.993 596.298 593.43 598.536Z" fill="white" stroke="black"/>
<path d="M578.701 624.916C569.976 633.898 563.23 637.805 539.002 634.147" stroke="black"/>
<path d="M418.019 523.032L630.667 293.689" stroke="black"/>
<path d="M564.278 394.377L663.572 295.082" stroke="black"/>
<path d="M794.106 522.154L851.223 458.008" stroke="black"/>
<path d="M728.96 674.957L879.22 460.552" stroke="black"/>
<path d="M177.162 444.334C168.991 428.974 164.816 429.633 154.407 434.015C143.998 438.397 135.451 440.267 144.331 458.026C153.211 475.784 155.937 482.905 164.816 500.663C176.455 520.954 189.567 512.72 192.101 509.758C197.045 502.982 199.558 496.753 194.438 486.71L185.279 472.242L195.698 464.412L175.433 479.022" stroke="#FF0000" stroke-width="5"/>
<path d="M456.104 426.815L417.018 425.703" stroke="#FF0000" stroke-width="5"/>
<path d="M291.366 438.021L280.526 405.032C287.304 400.159 297.331 394.152 300.415 395.329C303.465 394.662 308.345 401.494 309.904 406.906C313.593 419.708 311.378 420.164 308.76 423.017L291.366 438.021Z" stroke="#FF0000" stroke-width="5"/>
<path d="M318.228 402.205L339.436 385.239" stroke="#FF0000" stroke-width="5"/>
<path d="M351.924 369.216L344.148 348.48C353.664 342.807 361.637 337.462 366.305 338.76C370.974 340.059 374.31 347.16 370.539 353.192C366.769 359.225 351.924 369.216 351.924 369.216ZM351.924 369.216L359.7 389.952C359.7 389.952 374.18 384.909 379.494 375.342C384.807 365.775 380.834 359.986 374.31 357.905C367.785 355.824 351.924 369.216 351.924 369.216Z" stroke="#FF0000" stroke-width="5"/>
<path d="M376.195 326.801L401.172 332.456M401.172 332.456L404.942 308.893M401.172 332.456L412.011 356.491" stroke="#FF0000" stroke-width="5"/>
<path d="M464.323 318.789L437.46 340.468L429.684 318.318M429.684 318.318L421.908 296.168L442.173 275.432M429.684 318.318L453.483 299.938" stroke="#FF0000" stroke-width="5"/>
<path d="M294.193 503.999L275.91 519.998M275.91 519.998L248.951 543.586L266.859 494.103L275.91 519.998ZM275.91 519.998L284.768 543.586" stroke="#FF0000" stroke-width="5"/>
<path d="M343.677 504.942L316.814 523.793L308.567 503.528M308.567 503.528L300.32 483.263L325.297 465.826M308.567 503.528L334.251 486.562" stroke="#FF0000" stroke-width="5"/>
<path d="M338.021 457.343L362.528 497.401L358.286 445.09" stroke="#FF0000" stroke-width="5"/>
<path d="M410.598 454.044L383.264 477.608L377.137 456.165M377.137 456.165L371.011 434.722L391.747 417.285M377.137 456.165L398.345 438.492" stroke="#FF0000" stroke-width="5"/>
<path d="M423.793 448.861L416.724 426.239M416.724 426.239L409.655 403.618C421.278 397.546 431.129 390.889 435.357 399.399C439.584 407.909 430.961 420.301 416.724 426.239Z" stroke="#FF0000" stroke-width="5"/>
<path d="M233.352 454.997C234.808 459.335 234.852 463.577 233.867 466.889C232.88 470.209 230.953 472.374 228.58 473.17C226.208 473.966 223.365 473.403 220.575 471.352C217.791 469.305 215.266 465.895 213.81 461.557C212.353 457.219 212.309 452.977 213.294 449.665C214.281 446.345 216.209 444.181 218.581 443.384C220.953 442.588 223.796 443.151 226.587 445.202C229.37 447.249 231.895 450.659 233.352 454.997Z" fill="white" stroke="#FF0000" stroke-width="5"/>
<path d="M269.225 439.35C270.681 443.688 270.725 447.93 269.74 451.242C268.753 454.562 266.826 456.726 264.454 457.523C262.081 458.319 259.238 457.756 256.448 455.705C253.664 453.658 251.139 450.248 249.683 445.91C248.226 441.572 248.182 437.33 249.167 434.018C250.154 430.698 252.082 428.533 254.454 427.737C256.826 426.941 259.669 427.504 262.46 429.555C265.243 431.602 267.768 435.012 269.225 439.35Z" fill="white" stroke="#FF0000" stroke-width="5"/>
<path d="M846.896 260.883L877.828 273.158L882.411 269.394L879.967 253.982M876.028 229.133L879.967 253.982M879.967 253.982L892.23 257.61V231.752V267.757L898.122 265.466L902.856 257.61M913.015 240.753L902.856 257.61M902.856 257.61L906.305 264.648L918.089 267.757L942.965 238.135L911.542 275.613L915.307 284.614H928.4L935.928 288.706M935.928 288.706L957.859 281.996M935.928 288.706L959.332 291.652L927.09 292.961L917.107 298.198V302.29M917.107 302.29L928.4 307.516M917.107 302.29L913.015 306.545L922.18 313.255M936.91 311.455L928.4 307.516M928.4 307.516L922.18 313.255M922.18 313.255L923.661 315.08M933.473 327.166L940.838 324.221H955.895M933.473 327.166L955.895 347.133M933.473 327.166L923.661 315.08M923.661 315.08L915.307 321.111M915.307 321.111L909.415 316.856L906.305 318.329M915.307 321.111L917.107 330.276L931.345 337.15M906.305 318.329L904.669 312.273L908.992 328.219M906.305 318.329L908.992 328.219M918.089 361.699L908.992 328.219M908.992 328.219L902.856 337.15L904.669 348.664L900.262 354.005" stroke="white" stroke-width="2"/>
<path d="M881.082 260.62L867.311 268.194L860.425 266.358L869.147 275.309L853.998 280.818H849.637M836.095 285.408L845.276 280.818H849.637M849.637 280.818V296.655M849.637 280.818L865.829 282.207L871.442 283.343L862.261 294.13L852.621 299.409M852.621 299.409L823.012 321.444M852.621 299.409L862.261 304.918L858.006 310.622M830.587 347.38L846.424 326.149M846.424 326.149L852.621 324.657L856.523 329.477M846.424 326.149L858.006 310.622M858.006 310.622L869.147 307.672V308.82M869.147 312.722V308.82M869.147 308.82L862.261 317.542M869.147 308.82V314.099L879.934 301.475L883.607 304.918L879.934 312.722L883.607 317.542L886.131 318.919L885.135 319.644M881.082 322.591L865.474 331.084M881.082 322.591L874.426 346.232M881.082 322.591L885.135 319.644M885.135 319.644L888.427 322.591H893.476V319.644L897.608 321.444M897.608 321.444L895.312 365.283M897.608 321.444L899.444 312.722H904.493" stroke="white" stroke-width="2"/>
<path d="M659.505 555.282C657.128 560.977 654.171 565.575 651.116 568.44C648.05 571.316 645.001 572.35 642.351 571.244C639.682 570.13 638.134 567.28 637.873 563.158C637.612 559.048 638.646 553.791 641.015 548.108C642.939 544.199 645.341 540.809 648.147 537.607C653.654 532.761 657.881 530.134 660.915 528.507C660.957 529.798 661.084 531.264 661.225 532.871C661.252 533.184 661.28 533.502 661.307 533.825C661.509 536.179 661.709 538.829 661.71 541.735C661.542 544.558 661.243 547.345 660.857 549.733C660.469 552.135 660 554.097 659.505 555.282Z" fill="white" stroke="black"/>
</svg>
